<?xml version="1.0" encoding="utf-8"?>
<!-- Generator: Adobe Illustrator 16.0.0, SVG Export Plug-In . SVG Version: 6.00 Build 0)  -->
<!DOCTYPE svg PUBLIC "-//W3C//DTD SVG 1.1//EN" "http://www.w3.org/Graphics/SVG/1.1/DTD/svg11.dtd">
<svg version="1.1" id="Layer_1" xmlns="http://www.w3.org/2000/svg" xmlns:xlink="http://www.w3.org/1999/xlink" x="0px" y="0px"
	 width="960px" height="960px" viewBox="-76.555 -181.265 960 960" enable-background="new -76.555 -181.265 960 960"
	 xml:space="preserve">
<circle cx="403.445" cy="298.735" r="479"/>
<g>
	<path fill="#FFFFFF" d="M44.099,119.24h118.266l178.801,226.909c0,0,0-30.469,0-118.266S304.684,119.24,304.684,119.24h139.112
		c0,0-36.081,23.652-36.081,94.612c0,70.959-0.4,258.18-0.4,258.18h-71.762l-189.625-240.14c0,0,0,67.753,0,143.522
		c0,75.771,37.283,96.617,37.283,96.617H42.094c0,0,37.284-19.243,37.284-104.635c0-85.393,0-88.6,0-155.148
		C79.378,145.699,44.099,119.24,44.099,119.24z"/>
	<circle fill="#FFFFFF" cx="753.692" cy="433.144" r="46.104"/>
	<path fill="#FFFFFF" d="M569.678,213.852c-95.013,0-142.72,59.733-142.72,133.9c0,73.766,51.315,133.9,142.72,133.9
		c91.405,0,142.721-59.733,142.721-133.9C711.998,273.586,664.692,213.852,569.678,213.852z M569.678,424.725
		c-38.887,0-60.535-34.478-60.535-76.973s20.445-76.973,60.535-76.973c40.091,0,60.536,34.478,60.536,76.973
		S608.566,424.725,569.678,424.725z"/>
</g>
</svg>
