<?xml version="1.0" encoding="utf-8"?>
<svg viewBox="0 0 500 500" xmlns="http://www.w3.org/2000/svg">
  <ellipse style="" cx="250" cy="250" rx="250" ry="250"/>
  <g transform="matrix(2.017903, 0, 0, 2.017903, 43.901512, 127.513275)" style="">
    <path class="st0" d="M11,15.5h29.5l44.6,56.6c0,0,0-7.6,0-29.5S76,15.5,76,15.5h34.7c0,0-9,5.9-9,23.6s-0.1,64.4-0.1,64.4H83.7 L36.4,43.6c0,0,0,16.9,0,35.8s9.3,24.1,9.3,24.1H10.5c0,0,9.3-4.8,9.3-26.1s0-22.1,0-38.7S11,15.5,11,15.5z" style="fill: rgb(255, 255, 255);"/>
    <circle class="st0" cx="188" cy="93.8" r="11.5" style="fill: rgb(255, 255, 255);"/>
    <path class="st0" d="M142.1,39.1c-23.7,0-35.6,14.9-35.6,33.4c0,18.4,12.8,33.4,35.6,33.4s35.6-14.9,35.6-33.4 C177.6,54,165.8,39.1,142.1,39.1z M142.1,91.7c-9.7,0-15.1-8.6-15.1-19.2s5.1-19.2,15.1-19.2s15.1,8.6,15.1,19.2 S151.8,91.7,142.1,91.7z" style="fill: rgb(255, 255, 255);"/>
  </g>
</svg>