<svg xmlns="http://www.w3.org/2000/svg" width="592" height="1088"><style>line, path, circle, rect, polygon{stroke:black;stroke-width:2;stroke-opacity:1;fill-opacity:1;stroke-linecap:round;stroke-linejoin:miter;}text{font-family:Iosevka Fixed, monospace;font-size:14px;}rect.backdrop{stroke:none;fill:white;}.broken{stroke-dasharray:8;}.filled{fill:black;}.bg_filled{fill:white;}.nofill{fill:white;}.end_marked_arrow{marker-end:url(#arrow);}.start_marked_arrow{marker-start:url(#arrow);}.end_marked_diamond{marker-end:url(#diamond);}.start_marked_diamond{marker-start:url(#diamond);}.end_marked_circle{marker-end:url(#circle);}.start_marked_circle{marker-start:url(#circle);}.end_marked_open_circle{marker-end:url(#open_circle);}.start_marked_open_circle{marker-start:url(#open_circle);}.end_marked_big_open_circle{marker-end:url(#big_open_circle);}.start_marked_big_open_circle{marker-start:url(#big_open_circle);}<!--separator--></style><defs><marker id="arrow" viewBox="-2 -2 8 8" refX="4" refY="2" markerWidth="7" markerHeight="7" orient="auto-start-reverse"><polygon points="0,0 0,4 4,2 0,0"></polygon></marker><marker id="diamond" viewBox="-2 -2 8 8" refX="4" refY="2" markerWidth="7" markerHeight="7" orient="auto-start-reverse"><polygon points="0,2 2,0 4,2 2,4 0,2"></polygon></marker><marker id="circle" viewBox="0 0 8 8" refX="4" refY="4" markerWidth="7" markerHeight="7" orient="auto-start-reverse"><circle cx="4" cy="4" r="2" class="filled"></circle></marker><marker id="open_circle" viewBox="0 0 8 8" refX="4" refY="4" markerWidth="7" markerHeight="7" orient="auto-start-reverse"><circle cx="4" cy="4" r="2" class="bg_filled"></circle></marker><marker id="big_open_circle" viewBox="0 0 8 8" refX="4" refY="4" markerWidth="7" markerHeight="7" orient="auto-start-reverse"><circle cx="4" cy="4" r="3" class="bg_filled"></circle></marker></defs><rect class="backdrop" x="0" y="0" width="592" height="1088"></rect><circle cx="4" cy="8" r="4" class="nofill"></circle><line x1="4" y1="12" x2="4" y2="36" class="solid"></line><line x1="8" y1="8" x2="32" y2="8" class="solid"></line><circle cx="36" cy="8" r="4" class="nofill"></circle><line x1="40" y1="8" x2="64" y2="8" class="solid"></line><circle cx="68" cy="8" r="4" class="nofill"></circle><line x1="72" y1="8" x2="96" y2="8" class="solid"></line><circle cx="100" cy="8" r="4" class="nofill"></circle><line x1="104" y1="8" x2="128" y2="8" class="solid"></line><circle cx="132" cy="8" r="4" class="nofill"></circle><line x1="136" y1="8" x2="160" y2="8" class="solid"></line><circle cx="164" cy="8" r="4" class="nofill"></circle><line x1="168" y1="8" x2="192" y2="8" class="solid"></line><circle cx="196" cy="8" r="4" class="nofill"></circle><line x1="200" y1="8" x2="224" y2="8" class="solid"></line><circle cx="228" cy="8" r="4" class="nofill"></circle><line x1="232" y1="8" x2="256" y2="8" class="solid"></line><circle cx="260" cy="8" r="4" class="nofill"></circle><line x1="264" y1="8" x2="288" y2="8" class="solid"></line><circle cx="292" cy="8" r="4" class="nofill"></circle><line x1="296" y1="8" x2="320" y2="8" class="solid"></line><circle cx="324" cy="8" r="4" class="nofill"></circle><line x1="328" y1="8" x2="352" y2="8" class="solid"></line><circle cx="356" cy="8" r="4" class="nofill"></circle><line x1="360" y1="8" x2="384" y2="8" class="solid"></line><circle cx="388" cy="8" r="4" class="nofill"></circle><line x1="392" y1="8" x2="416" y2="8" class="solid"></line><circle cx="420" cy="8" r="4" class="nofill"></circle><line x1="424" y1="8" x2="448" y2="8" class="solid"></line><circle cx="452" cy="8" r="4" class="nofill"></circle><line x1="456" y1="8" x2="480" y2="8" class="solid"></line><circle cx="484" cy="8" r="4" class="nofill"></circle><line x1="488" y1="8" x2="512" y2="8" class="solid"></line><circle cx="516" cy="8" r="4" class="nofill"></circle><line x1="520" y1="8" x2="544" y2="8" class="solid"></line><circle cx="548" cy="8" r="4" class="nofill"></circle><line x1="552" y1="8" x2="576" y2="8" class="solid"></line><circle cx="580" cy="8" r="4" class="nofill"></circle><line x1="580" y1="12" x2="580" y2="36" class="solid"></line><circle cx="4" cy="40" r="4" class="nofill"></circle><line x1="4" y1="44" x2="4" y2="68" class="solid"></line><circle cx="580" cy="40" r="4" class="nofill"></circle><line x1="580" y1="44" x2="580" y2="68" class="solid"></line><circle cx="4" cy="72" r="4" class="nofill"></circle><line x1="4" y1="76" x2="4" y2="100" class="solid"></line><circle cx="580" cy="72" r="4" class="nofill"></circle><line x1="580" y1="76" x2="580" y2="100" class="solid"></line><circle cx="4" cy="104" r="4" class="nofill"></circle><line x1="4" y1="108" x2="4" y2="132" class="solid"></line><circle cx="580" cy="104" r="4" class="nofill"></circle><line x1="580" y1="108" x2="580" y2="132" class="solid"></line><circle cx="4" cy="136" r="4" class="nofill"></circle><line x1="4" y1="140" x2="4" y2="164" class="solid"></line><circle cx="580" cy="136" r="4" class="nofill"></circle><line x1="580" y1="140" x2="580" y2="164" class="solid"></line><circle cx="4" cy="168" r="4" class="nofill"></circle><line x1="4" y1="172" x2="4" y2="196" class="solid"></line><circle cx="580" cy="168" r="4" class="nofill"></circle><line x1="580" y1="172" x2="580" y2="196" class="solid"></line><circle cx="4" cy="200" r="4" class="nofill"></circle><line x1="4" y1="204" x2="4" y2="228" class="solid"></line><circle cx="580" cy="200" r="4" class="nofill"></circle><line x1="580" y1="204" x2="580" y2="228" class="solid"></line><circle cx="4" cy="232" r="4" class="nofill"></circle><line x1="4" y1="236" x2="4" y2="260" class="solid"></line><circle cx="580" cy="232" r="4" class="nofill"></circle><line x1="580" y1="236" x2="580" y2="260" class="solid"></line><circle cx="4" cy="264" r="4" class="nofill"></circle><line x1="4" y1="268" x2="4" y2="292" class="solid"></line><circle cx="580" cy="264" r="4" class="nofill"></circle><line x1="580" y1="268" x2="580" y2="292" class="solid"></line><circle cx="4" cy="296" r="4" class="nofill"></circle><line x1="4" y1="300" x2="4" y2="324" class="solid"></line><circle cx="580" cy="296" r="4" class="nofill"></circle><line x1="580" y1="300" x2="580" y2="324" class="solid"></line><circle cx="4" cy="328" r="4" class="nofill"></circle><line x1="4" y1="332" x2="4" y2="356" class="solid"></line><circle cx="580" cy="328" r="4" class="nofill"></circle><line x1="580" y1="332" x2="580" y2="356" class="solid"></line><circle cx="4" cy="360" r="4" class="nofill"></circle><line x1="4" y1="364" x2="4" y2="388" class="solid"></line><circle cx="580" cy="360" r="4" class="nofill"></circle><line x1="580" y1="364" x2="580" y2="388" class="solid"></line><circle cx="4" cy="392" r="4" class="nofill"></circle><line x1="4" y1="396" x2="4" y2="420" class="solid"></line><circle cx="580" cy="392" r="4" class="nofill"></circle><line x1="580" y1="396" x2="580" y2="420" class="solid"></line><circle cx="4" cy="424" r="4" class="nofill"></circle><line x1="4" y1="428" x2="4" y2="452" class="solid"></line><circle cx="580" cy="424" r="4" class="nofill"></circle><line x1="580" y1="428" x2="580" y2="452" class="solid"></line><circle cx="4" cy="456" r="4" class="nofill"></circle><line x1="4" y1="460" x2="4" y2="484" class="solid"></line><circle cx="580" cy="456" r="4" class="nofill"></circle><line x1="580" y1="460" x2="580" y2="484" class="solid"></line><circle cx="4" cy="488" r="4" class="nofill"></circle><line x1="4" y1="492" x2="4" y2="516" class="solid"></line><circle cx="580" cy="488" r="4" class="nofill"></circle><line x1="580" y1="492" x2="580" y2="516" class="solid"></line><circle cx="4" cy="520" r="4" class="nofill"></circle><line x1="4" y1="524" x2="4" y2="548" class="solid"></line><circle cx="580" cy="520" r="4" class="nofill"></circle><line x1="580" y1="524" x2="580" y2="548" class="solid"></line><circle cx="4" cy="552" r="4" class="nofill"></circle><line x1="4" y1="556" x2="4" y2="580" class="solid"></line><circle cx="580" cy="552" r="4" class="nofill"></circle><line x1="580" y1="556" x2="580" y2="580" class="solid"></line><circle cx="4" cy="584" r="4" class="nofill"></circle><line x1="4" y1="588" x2="4" y2="612" class="solid"></line><circle cx="580" cy="584" r="4" class="nofill"></circle><line x1="580" y1="588" x2="580" y2="612" class="solid"></line><circle cx="4" cy="616" r="4" class="nofill"></circle><line x1="4" y1="620" x2="4" y2="644" class="solid"></line><circle cx="580" cy="616" r="4" class="nofill"></circle><line x1="580" y1="620" x2="580" y2="644" class="solid"></line><circle cx="4" cy="648" r="4" class="nofill"></circle><line x1="4" y1="652" x2="4" y2="676" class="solid"></line><circle cx="580" cy="648" r="4" class="nofill"></circle><line x1="580" y1="652" x2="580" y2="676" class="solid"></line><circle cx="4" cy="680" r="4" class="nofill"></circle><line x1="4" y1="684" x2="4" y2="708" class="solid"></line><circle cx="580" cy="680" r="4" class="nofill"></circle><line x1="580" y1="684" x2="580" y2="708" class="solid"></line><circle cx="4" cy="712" r="4" class="nofill"></circle><line x1="4" y1="716" x2="4" y2="740" class="solid"></line><circle cx="580" cy="712" r="4" class="nofill"></circle><line x1="580" y1="716" x2="580" y2="740" class="solid"></line><circle cx="4" cy="744" r="4" class="nofill"></circle><line x1="4" y1="748" x2="4" y2="772" class="solid"></line><circle cx="580" cy="744" r="4" class="nofill"></circle><line x1="580" y1="748" x2="580" y2="772" class="solid"></line><line x1="216" y1="752" x2="226" y2="772" class="solid"></line><line x1="240" y1="752" x2="230" y2="772" class="solid"></line><circle cx="4" cy="776" r="4" class="nofill"></circle><line x1="4" y1="780" x2="4" y2="804" class="solid"></line><line x1="208" y1="776" x2="224" y2="776" class="solid"></line><circle cx="228" cy="776" r="4" class="nofill"></circle><line x1="226" y1="780" x2="216" y2="800" class="solid"></line><line x1="230" y1="780" x2="240" y2="800" class="solid"></line><line x1="232" y1="776" x2="248" y2="776" class="solid"></line><circle cx="580" cy="776" r="4" class="nofill"></circle><line x1="580" y1="780" x2="580" y2="804" class="solid"></line><circle cx="4" cy="808" r="4" class="nofill"></circle><line x1="4" y1="812" x2="4" y2="836" class="solid"></line><circle cx="580" cy="808" r="4" class="nofill"></circle><line x1="580" y1="812" x2="580" y2="836" class="solid"></line><line x1="216" y1="824" x2="240" y2="824" class="solid"></line><circle cx="4" cy="840" r="4" class="nofill"></circle><line x1="4" y1="844" x2="4" y2="868" class="solid"></line><circle cx="580" cy="840" r="4" class="nofill"></circle><line x1="580" y1="844" x2="580" y2="868" class="solid"></line><circle cx="4" cy="872" r="4" class="nofill"></circle><line x1="4" y1="876" x2="4" y2="900" class="solid"></line><circle cx="580" cy="872" r="4" class="nofill"></circle><line x1="580" y1="876" x2="580" y2="900" class="solid"></line><circle cx="4" cy="904" r="4" class="nofill"></circle><line x1="4" y1="908" x2="4" y2="932" class="solid"></line><circle cx="580" cy="904" r="4" class="nofill"></circle><line x1="580" y1="908" x2="580" y2="932" class="solid"></line><circle cx="4" cy="936" r="4" class="nofill"></circle><line x1="4" y1="940" x2="4" y2="964" class="solid"></line><circle cx="580" cy="936" r="4" class="nofill"></circle><line x1="580" y1="940" x2="580" y2="964" class="solid"></line><circle cx="4" cy="968" r="4" class="nofill"></circle><line x1="4" y1="972" x2="4" y2="996" class="solid"></line><circle cx="580" cy="968" r="4" class="nofill"></circle><line x1="580" y1="972" x2="580" y2="996" class="solid"></line><circle cx="4" cy="1000" r="4" class="nofill"></circle><line x1="4" y1="1004" x2="4" y2="1028" class="solid"></line><circle cx="580" cy="1000" r="4" class="nofill"></circle><line x1="580" y1="1004" x2="580" y2="1028" class="solid"></line><circle cx="4" cy="1032" r="4" class="nofill"></circle><line x1="8" y1="1032" x2="32" y2="1032" class="solid"></line><circle cx="36" cy="1032" r="4" class="nofill"></circle><line x1="40" y1="1032" x2="64" y2="1032" class="solid"></line><circle cx="68" cy="1032" r="4" class="nofill"></circle><line x1="72" y1="1032" x2="96" y2="1032" class="solid"></line><circle cx="100" cy="1032" r="4" class="nofill"></circle><line x1="104" y1="1032" x2="128" y2="1032" class="solid"></line><circle cx="132" cy="1032" r="4" class="nofill"></circle><line x1="136" y1="1032" x2="160" y2="1032" class="solid"></line><circle cx="164" cy="1032" r="4" class="nofill"></circle><line x1="168" y1="1032" x2="192" y2="1032" class="solid"></line><circle cx="196" cy="1032" r="4" class="nofill"></circle><line x1="200" y1="1032" x2="224" y2="1032" class="solid"></line><circle cx="228" cy="1032" r="4" class="nofill"></circle><line x1="232" y1="1032" x2="256" y2="1032" class="solid"></line><circle cx="260" cy="1032" r="4" class="nofill"></circle><line x1="264" y1="1032" x2="288" y2="1032" class="solid"></line><circle cx="292" cy="1032" r="4" class="nofill"></circle><line x1="296" y1="1032" x2="320" y2="1032" class="solid"></line><circle cx="324" cy="1032" r="4" class="nofill"></circle><line x1="328" y1="1032" x2="352" y2="1032" class="solid"></line><circle cx="356" cy="1032" r="4" class="nofill"></circle><line x1="360" y1="1032" x2="384" y2="1032" class="solid"></line><circle cx="388" cy="1032" r="4" class="nofill"></circle><line x1="392" y1="1032" x2="416" y2="1032" class="solid"></line><circle cx="420" cy="1032" r="4" class="nofill"></circle><line x1="424" y1="1032" x2="448" y2="1032" class="solid"></line><circle cx="452" cy="1032" r="4" class="nofill"></circle><line x1="456" y1="1032" x2="480" y2="1032" class="solid"></line><circle cx="484" cy="1032" r="4" class="nofill"></circle><line x1="488" y1="1032" x2="512" y2="1032" class="solid"></line><circle cx="516" cy="1032" r="4" class="nofill"></circle><line x1="520" y1="1032" x2="544" y2="1032" class="solid"></line><circle cx="548" cy="1032" r="4" class="nofill"></circle><line x1="552" y1="1032" x2="576" y2="1032" class="solid"></line><circle cx="580" cy="1032" r="4" class="nofill"></circle><text x="210" y="1068" >*</text><text x="226" y="1068" >D</text><text x="242" y="1068" >U</text><text x="258" y="1068" >N</text><text x="274" y="1068" >G</text><text x="290" y="1068" >E</text><text x="306" y="1068" >O</text><text x="322" y="1068" >N</text><text x="338" y="1068" >B</text><text x="354" y="1068" >O</text><text x="370" y="1068" >B</text><text x="386" y="1068" >*</text><g><line x1="20" y1="24" x2="92" y2="24" class="solid"></line><line x1="20" y1="24" x2="20" y2="168" class="solid"></line><line x1="92" y1="24" x2="24" y2="160" class="solid"></line><line x1="24" y1="160" x2="20" y2="168" class="solid"></line></g><g><line x1="104" y1="24" x2="480" y2="24" class="solid"></line><line x1="132" y1="24" x2="132" y2="56" class="solid"></line><line x1="164" y1="24" x2="164" y2="56" class="solid"></line><line x1="196" y1="24" x2="196" y2="56" class="solid"></line><line x1="228" y1="24" x2="228" y2="56" class="solid"></line><line x1="260" y1="24" x2="260" y2="56" class="solid"></line><line x1="292" y1="24" x2="292" y2="56" class="solid"></line><line x1="324" y1="24" x2="324" y2="56" class="solid"></line><line x1="356" y1="24" x2="356" y2="56" class="solid"></line><line x1="388" y1="24" x2="388" y2="56" class="solid"></line><line x1="420" y1="24" x2="420" y2="56" class="solid"></line><line x1="452" y1="24" x2="452" y2="56" class="solid"></line><line x1="484" y1="32" x2="484" y2="56" class="solid"></line><line x1="88" y1="56" x2="496" y2="56" class="solid"></line><line x1="116" y1="56" x2="116" y2="88" class="solid"></line><line x1="148" y1="56" x2="148" y2="88" class="solid"></line><line x1="180" y1="56" x2="180" y2="88" class="solid"></line><line x1="212" y1="56" x2="212" y2="88" class="solid"></line><line x1="244" y1="56" x2="244" y2="88" class="solid"></line><line x1="276" y1="56" x2="276" y2="88" class="solid"></line><line x1="308" y1="56" x2="308" y2="88" class="solid"></line><line x1="340" y1="56" x2="340" y2="88" class="solid"></line><line x1="372" y1="56" x2="372" y2="88" class="solid"></line><line x1="404" y1="56" x2="404" y2="88" class="solid"></line><line x1="436" y1="56" x2="436" y2="88" class="solid"></line><line x1="468" y1="56" x2="468" y2="88" class="solid"></line><line x1="500" y1="64" x2="500" y2="88" class="solid"></line><line x1="72" y1="88" x2="512" y2="88" class="solid"></line><line x1="100" y1="88" x2="100" y2="888" class="solid"></line><line x1="132" y1="88" x2="132" y2="120" class="solid"></line><line x1="164" y1="88" x2="164" y2="120" class="solid"></line><line x1="196" y1="88" x2="196" y2="120" class="solid"></line><line x1="228" y1="88" x2="228" y2="120" class="solid"></line><line x1="260" y1="88" x2="260" y2="120" class="solid"></line><line x1="292" y1="88" x2="292" y2="120" class="solid"></line><line x1="324" y1="88" x2="324" y2="120" class="solid"></line><line x1="356" y1="88" x2="356" y2="120" class="solid"></line><line x1="388" y1="88" x2="388" y2="120" class="solid"></line><line x1="420" y1="88" x2="420" y2="120" class="solid"></line><line x1="452" y1="88" x2="452" y2="120" class="solid"></line><line x1="484" y1="88" x2="484" y2="888" class="solid"></line><line x1="100" y1="552" x2="112" y2="552" class="solid"></line><path d="M 112,552 A 8,8 0,0,1 118,556" class="nofill"></path><line x1="118" y1="556" x2="138" y2="596" class="solid"></line><path d="M 138,596 A 8,8 0,0,0 144,600" class="nofill"></path><line x1="144" y1="600" x2="160" y2="600" class="solid"></line><line x1="100" y1="888" x2="200" y2="888" class="solid"></line><line x1="256" y1="888" x2="484" y2="888" class="solid"></line><line x1="516" y1="96" x2="516" y2="120" class="solid"></line><line x1="56" y1="120" x2="528" y2="120" class="solid"></line><line x1="84" y1="120" x2="84" y2="920" class="solid"></line><line x1="500" y1="120" x2="500" y2="920" class="solid"></line><line x1="100" y1="888" x2="84" y2="920" class="solid"></line><line x1="484" y1="888" x2="500" y2="920" class="solid"></line><line x1="56" y1="920" x2="528" y2="920" class="solid"></line><line x1="68" y1="920" x2="68" y2="944" class="solid"></line><line x1="100" y1="920" x2="100" y2="952" class="solid"></line><line x1="132" y1="920" x2="132" y2="952" class="solid"></line><line x1="164" y1="920" x2="164" y2="952" class="solid"></line><line x1="196" y1="920" x2="196" y2="952" class="solid"></line><line x1="228" y1="920" x2="228" y2="952" class="solid"></line><line x1="260" y1="920" x2="260" y2="952" class="solid"></line><line x1="292" y1="920" x2="292" y2="952" class="solid"></line><line x1="324" y1="920" x2="324" y2="952" class="solid"></line><line x1="356" y1="920" x2="356" y2="952" class="solid"></line><line x1="388" y1="920" x2="388" y2="952" class="solid"></line><line x1="420" y1="920" x2="420" y2="952" class="solid"></line><line x1="452" y1="920" x2="452" y2="952" class="solid"></line><line x1="484" y1="920" x2="484" y2="952" class="solid"></line><line x1="516" y1="920" x2="516" y2="944" class="solid"></line><line x1="72" y1="952" x2="512" y2="952" class="solid"></line><line x1="84" y1="952" x2="84" y2="976" class="solid"></line><line x1="116" y1="952" x2="116" y2="984" class="solid"></line><line x1="148" y1="952" x2="148" y2="984" class="solid"></line><line x1="180" y1="952" x2="180" y2="984" class="solid"></line><line x1="212" y1="952" x2="212" y2="984" class="solid"></line><line x1="244" y1="952" x2="244" y2="984" class="solid"></line><line x1="276" y1="952" x2="276" y2="984" class="solid"></line><line x1="308" y1="952" x2="308" y2="984" class="solid"></line><line x1="340" y1="952" x2="340" y2="984" class="solid"></line><line x1="372" y1="952" x2="372" y2="984" class="solid"></line><line x1="404" y1="952" x2="404" y2="984" class="solid"></line><line x1="436" y1="952" x2="436" y2="984" class="solid"></line><line x1="468" y1="952" x2="468" y2="984" class="solid"></line><line x1="500" y1="952" x2="500" y2="976" class="solid"></line><line x1="88" y1="984" x2="496" y2="984" class="solid"></line><line x1="100" y1="984" x2="100" y2="1008" class="solid"></line><line x1="132" y1="984" x2="132" y2="1016" class="solid"></line><line x1="164" y1="984" x2="164" y2="1016" class="solid"></line><line x1="196" y1="984" x2="196" y2="1016" class="solid"></line><line x1="228" y1="984" x2="228" y2="1016" class="solid"></line><line x1="260" y1="984" x2="260" y2="1016" class="solid"></line><line x1="292" y1="984" x2="292" y2="1016" class="solid"></line><line x1="324" y1="984" x2="324" y2="1016" class="solid"></line><line x1="356" y1="984" x2="356" y2="1016" class="solid"></line><line x1="388" y1="984" x2="388" y2="1016" class="solid"></line><line x1="420" y1="984" x2="420" y2="1016" class="solid"></line><line x1="452" y1="984" x2="452" y2="1016" class="solid"></line><line x1="484" y1="984" x2="484" y2="1008" class="solid"></line><line x1="104" y1="1016" x2="480" y2="1016" class="solid"></line><line x1="52" y1="128" x2="52" y2="152" class="solid"></line><line x1="40" y1="152" x2="84" y2="152" class="solid"></line><line x1="68" y1="152" x2="68" y2="184" class="solid"></line><line x1="532" y1="128" x2="532" y2="152" class="solid"></line><line x1="500" y1="152" x2="544" y2="152" class="solid"></line><line x1="516" y1="152" x2="516" y2="184" class="solid"></line><line x1="36" y1="160" x2="36" y2="184" class="solid"></line><line x1="16" y1="184" x2="84" y2="184" class="solid"></line><line x1="52" y1="184" x2="52" y2="216" class="solid"></line><line x1="548" y1="160" x2="548" y2="184" class="solid"></line><line x1="500" y1="184" x2="568" y2="184" class="solid"></line><line x1="532" y1="184" x2="532" y2="216" class="solid"></line><line x1="20" y1="192" x2="20" y2="216" class="solid"></line><line x1="20" y1="216" x2="84" y2="216" class="solid"></line><line x1="36" y1="216" x2="36" y2="248" class="solid"></line><line x1="68" y1="216" x2="68" y2="248" class="solid"></line><line x1="20" y1="248" x2="84" y2="248" class="solid"></line><line x1="20" y1="248" x2="20" y2="280" class="solid"></line><line x1="52" y1="248" x2="52" y2="280" class="solid"></line><line x1="20" y1="280" x2="84" y2="280" class="solid"></line><line x1="36" y1="280" x2="36" y2="312" class="solid"></line><line x1="68" y1="280" x2="68" y2="312" class="solid"></line><line x1="20" y1="312" x2="84" y2="312" class="solid"></line><line x1="20" y1="312" x2="20" y2="344" class="solid"></line><line x1="52" y1="312" x2="52" y2="344" class="solid"></line><line x1="20" y1="344" x2="84" y2="344" class="solid"></line><line x1="36" y1="344" x2="36" y2="376" class="solid"></line><line x1="68" y1="344" x2="68" y2="376" class="solid"></line><line x1="20" y1="376" x2="84" y2="376" class="solid"></line><line x1="20" y1="376" x2="20" y2="408" class="solid"></line><line x1="52" y1="376" x2="52" y2="408" class="solid"></line><line x1="20" y1="408" x2="84" y2="408" class="solid"></line><line x1="36" y1="408" x2="36" y2="440" class="solid"></line><line x1="68" y1="408" x2="68" y2="440" class="solid"></line><line x1="20" y1="440" x2="84" y2="440" class="solid"></line><line x1="20" y1="440" x2="20" y2="472" class="solid"></line><line x1="52" y1="440" x2="52" y2="472" class="solid"></line><line x1="20" y1="472" x2="84" y2="472" class="solid"></line><line x1="36" y1="472" x2="36" y2="504" class="solid"></line><line x1="68" y1="472" x2="68" y2="504" class="solid"></line><line x1="20" y1="504" x2="84" y2="504" class="solid"></line><line x1="20" y1="504" x2="20" y2="536" class="solid"></line><line x1="52" y1="504" x2="52" y2="536" class="solid"></line><line x1="20" y1="536" x2="84" y2="536" class="solid"></line><line x1="36" y1="536" x2="36" y2="568" class="solid"></line><line x1="68" y1="536" x2="68" y2="568" class="solid"></line><line x1="20" y1="568" x2="84" y2="568" class="solid"></line><line x1="20" y1="568" x2="20" y2="600" class="solid"></line><line x1="52" y1="568" x2="52" y2="600" class="solid"></line><line x1="20" y1="600" x2="84" y2="600" class="solid"></line><line x1="36" y1="600" x2="36" y2="632" class="solid"></line><line x1="68" y1="600" x2="68" y2="632" class="solid"></line><line x1="20" y1="632" x2="84" y2="632" class="solid"></line><line x1="20" y1="632" x2="20" y2="664" class="solid"></line><line x1="52" y1="632" x2="52" y2="664" class="solid"></line><line x1="20" y1="664" x2="84" y2="664" class="solid"></line><line x1="36" y1="664" x2="36" y2="696" class="solid"></line><line x1="68" y1="664" x2="68" y2="696" class="solid"></line><line x1="20" y1="696" x2="84" y2="696" class="solid"></line><line x1="20" y1="696" x2="20" y2="728" class="solid"></line><line x1="52" y1="696" x2="52" y2="728" class="solid"></line><line x1="20" y1="728" x2="84" y2="728" class="solid"></line><line x1="36" y1="728" x2="36" y2="760" class="solid"></line><line x1="68" y1="728" x2="68" y2="760" class="solid"></line><line x1="20" y1="760" x2="84" y2="760" class="solid"></line><line x1="20" y1="760" x2="20" y2="792" class="solid"></line><line x1="52" y1="760" x2="52" y2="792" class="solid"></line><line x1="20" y1="792" x2="84" y2="792" class="solid"></line><line x1="36" y1="792" x2="36" y2="824" class="solid"></line><line x1="68" y1="792" x2="68" y2="824" class="solid"></line><line x1="20" y1="824" x2="84" y2="824" class="solid"></line><line x1="20" y1="824" x2="20" y2="848" class="solid"></line><line x1="52" y1="824" x2="52" y2="856" class="solid"></line><line x1="24" y1="856" x2="84" y2="856" class="solid"></line><line x1="36" y1="856" x2="36" y2="880" class="solid"></line><line x1="68" y1="856" x2="68" y2="888" class="solid"></line><line x1="40" y1="888" x2="84" y2="888" class="solid"></line><line x1="52" y1="888" x2="52" y2="912" class="solid"></line><line x1="564" y1="192" x2="564" y2="216" class="solid"></line><line x1="500" y1="216" x2="564" y2="216" class="solid"></line><line x1="516" y1="216" x2="516" y2="248" class="solid"></line><line x1="548" y1="216" x2="548" y2="248" class="solid"></line><line x1="500" y1="248" x2="564" y2="248" class="solid"></line><line x1="532" y1="248" x2="532" y2="280" class="solid"></line><line x1="564" y1="248" x2="564" y2="280" class="solid"></line><line x1="500" y1="280" x2="564" y2="280" class="solid"></line><line x1="516" y1="280" x2="516" y2="312" class="solid"></line><line x1="548" y1="280" x2="548" y2="312" class="solid"></line><line x1="500" y1="312" x2="564" y2="312" class="solid"></line><line x1="532" y1="312" x2="532" y2="344" class="solid"></line><line x1="564" y1="312" x2="564" y2="344" class="solid"></line><line x1="500" y1="344" x2="564" y2="344" class="solid"></line><line x1="516" y1="344" x2="516" y2="376" class="solid"></line><line x1="548" y1="344" x2="548" y2="376" class="solid"></line><line x1="500" y1="376" x2="564" y2="376" class="solid"></line><line x1="532" y1="376" x2="532" y2="408" class="solid"></line><line x1="564" y1="376" x2="564" y2="408" class="solid"></line><line x1="500" y1="408" x2="564" y2="408" class="solid"></line><line x1="516" y1="408" x2="516" y2="440" class="solid"></line><line x1="548" y1="408" x2="548" y2="440" class="solid"></line><line x1="500" y1="440" x2="564" y2="440" class="solid"></line><line x1="532" y1="440" x2="532" y2="472" class="solid"></line><line x1="564" y1="440" x2="564" y2="472" class="solid"></line><line x1="500" y1="472" x2="564" y2="472" class="solid"></line><line x1="516" y1="472" x2="516" y2="504" class="solid"></line><line x1="548" y1="472" x2="548" y2="504" class="solid"></line><line x1="500" y1="504" x2="564" y2="504" class="solid"></line><line x1="532" y1="504" x2="532" y2="536" class="solid"></line><line x1="564" y1="504" x2="564" y2="536" class="solid"></line><line x1="500" y1="536" x2="564" y2="536" class="solid"></line><line x1="516" y1="536" x2="516" y2="568" class="solid"></line><line x1="548" y1="536" x2="548" y2="568" class="solid"></line><line x1="500" y1="568" x2="564" y2="568" class="solid"></line><line x1="532" y1="568" x2="532" y2="600" class="solid"></line><line x1="564" y1="568" x2="564" y2="600" class="solid"></line><line x1="500" y1="600" x2="564" y2="600" class="solid"></line><line x1="516" y1="600" x2="516" y2="632" class="solid"></line><line x1="548" y1="600" x2="548" y2="632" class="solid"></line><line x1="500" y1="632" x2="564" y2="632" class="solid"></line><line x1="532" y1="632" x2="532" y2="664" class="solid"></line><line x1="564" y1="632" x2="564" y2="664" class="solid"></line><line x1="500" y1="664" x2="564" y2="664" class="solid"></line><line x1="516" y1="664" x2="516" y2="696" class="solid"></line><line x1="548" y1="664" x2="548" y2="696" class="solid"></line><line x1="500" y1="696" x2="564" y2="696" class="solid"></line><line x1="532" y1="696" x2="532" y2="728" class="solid"></line><line x1="564" y1="696" x2="564" y2="728" class="solid"></line><line x1="500" y1="728" x2="564" y2="728" class="solid"></line><line x1="516" y1="728" x2="516" y2="760" class="solid"></line><line x1="548" y1="728" x2="548" y2="760" class="solid"></line><line x1="500" y1="760" x2="564" y2="760" class="solid"></line><line x1="532" y1="760" x2="532" y2="792" class="solid"></line><line x1="564" y1="760" x2="564" y2="792" class="solid"></line><line x1="500" y1="792" x2="564" y2="792" class="solid"></line><line x1="516" y1="792" x2="516" y2="824" class="solid"></line><line x1="548" y1="792" x2="548" y2="824" class="solid"></line><line x1="500" y1="824" x2="564" y2="824" class="solid"></line><line x1="532" y1="824" x2="532" y2="856" class="solid"></line><line x1="564" y1="824" x2="564" y2="848" class="solid"></line><line x1="500" y1="856" x2="560" y2="856" class="solid"></line><line x1="516" y1="856" x2="516" y2="888" class="solid"></line><line x1="548" y1="856" x2="548" y2="880" class="solid"></line><line x1="500" y1="888" x2="544" y2="888" class="solid"></line><line x1="532" y1="888" x2="532" y2="912" class="solid"></line><path d="M 336,392 A 8,8 0,0,0 330,396" class="nofill"></path><line x1="330" y1="396" x2="310" y2="436" class="solid"></line><line x1="336" y1="392" x2="392" y2="392" class="solid"></line><path d="M 392,392 A 8,8 0,0,1 398,396" class="nofill"></path><line x1="398" y1="396" x2="410" y2="420" class="solid"></line><path d="M 410,420 A 8,8 0,0,0 416,424" class="nofill"></path><line x1="416" y1="424" x2="424" y2="424" class="solid"></line><path d="M 424,424 A 8,8 0,0,1 430,428" class="nofill"></path><line x1="430" y1="428" x2="442" y2="452" class="solid"></line><path d="M 442,452 A 8,8 0,0,0 448,456" class="nofill"></path><line x1="448" y1="456" x2="484" y2="456" class="solid"></line><path d="M 232,440 A 8,8 0,0,0 226,444" class="nofill"></path><line x1="226" y1="444" x2="214" y2="468" class="solid"></line><line x1="232" y1="440" x2="304" y2="440" class="solid"></line><path d="M 310,436 A 8,8 0,0,1 304,440" class="nofill"></path><path d="M 200,472 A 8,8 0,0,0 194,476" class="nofill"></path><line x1="194" y1="476" x2="184" y2="496" class="solid"></line><line x1="200" y1="472" x2="208" y2="472" class="solid"></line><path d="M 214,468 A 8,8 0,0,1 208,472" class="nofill"></path><path d="M 184,496 A 16,16 0,0,0 184,512" class="nofill"></path><line x1="184" y1="512" x2="192" y2="528" class="solid"></line><path d="M 192,528 A 16,16 0,0,1 192,544" class="nofill"></path><line x1="192" y1="544" x2="166" y2="596" class="solid"></line><path d="M 166,596 A 8,8 0,0,1 160,600" class="nofill"></path><line x1="100" y1="32" x2="100" y2="56" class="solid"></line><line x1="84" y1="64" x2="84" y2="88" class="solid"></line><line x1="68" y1="96" x2="68" y2="120" class="solid"></line></g><g><line x1="492" y1="24" x2="564" y2="24" class="solid"></line><line x1="492" y1="24" x2="560" y2="160" class="solid"></line><line x1="564" y1="24" x2="564" y2="168" class="solid"></line><line x1="560" y1="160" x2="564" y2="168" class="solid"></line></g><g><line x1="48" y1="48" x2="40" y2="64" class="solid"></line><line x1="48" y1="48" x2="56" y2="64" class="solid"></line><line x1="40" y1="64" x2="48" y2="80" class="solid"></line><line x1="56" y1="64" x2="48" y2="80" class="solid"></line></g><g><line x1="536" y1="48" x2="528" y2="64" class="solid"></line><line x1="536" y1="48" x2="544" y2="64" class="solid"></line><line x1="528" y1="64" x2="536" y2="80" class="solid"></line><line x1="544" y1="64" x2="536" y2="80" class="solid"></line></g><g><line x1="228" y1="780" x2="228" y2="848" class="solid"></line><line x1="216" y1="848" x2="240" y2="848" class="solid"></line><line x1="220" y1="848" x2="220" y2="872" class="solid"></line><line x1="236" y1="848" x2="236" y2="872" class="solid"></line><line x1="236" y1="872" x2="240" y2="872" class="solid"></line><path d="M 240,872 A 8,8 0,0,1 246,876" class="nofill"></path><line x1="246" y1="876" x2="248" y2="880" class="solid"></line><path d="M 248,880 A 16,16 0,0,1 248,896" class="nofill"></path><line x1="248" y1="896" x2="246" y2="900" class="solid"></line><path d="M 216,872 A 8,8 0,0,0 210,876" class="nofill"></path><line x1="210" y1="876" x2="208" y2="880" class="solid"></line><line x1="216" y1="872" x2="220" y2="872" class="solid"></line><path d="M 208,880 A 16,16 0,0,0 208,896" class="nofill"></path><line x1="208" y1="896" x2="210" y2="900" class="solid"></line><path d="M 210,900 A 8,8 0,0,0 216,904" class="nofill"></path><line x1="216" y1="904" x2="240" y2="904" class="solid"></line><path d="M 246,900 A 8,8 0,0,1 240,904" class="nofill"></path></g><g><line x1="20" y1="872" x2="20" y2="1016" class="solid"></line><line x1="20" y1="872" x2="88" y2="1008" class="solid"></line><line x1="20" y1="1016" x2="92" y2="1016" class="solid"></line><line x1="88" y1="1008" x2="92" y2="1016" class="solid"></line></g><g><line x1="564" y1="872" x2="496" y2="1008" class="solid"></line><line x1="564" y1="872" x2="564" y2="1016" class="solid"></line><line x1="496" y1="1008" x2="492" y2="1016" class="solid"></line><line x1="492" y1="1016" x2="564" y2="1016" class="solid"></line></g><g><line x1="48" y1="960" x2="40" y2="976" class="solid"></line><line x1="48" y1="960" x2="56" y2="976" class="solid"></line><line x1="40" y1="976" x2="48" y2="992" class="solid"></line><line x1="56" y1="976" x2="48" y2="992" class="solid"></line></g><g><line x1="536" y1="960" x2="528" y2="976" class="solid"></line><line x1="536" y1="960" x2="544" y2="976" class="solid"></line><line x1="528" y1="976" x2="536" y2="992" class="solid"></line><line x1="544" y1="976" x2="536" y2="992" class="solid"></line></g></svg>