<svg xmlns="http://www.w3.org/2000/svg" width="352" height="496"><style>line, path, circle, rect, polygon{stroke:black;stroke-width:2;stroke-opacity:1;fill-opacity:1;stroke-linecap:round;stroke-linejoin:miter;}text{font-family:Iosevka Fixed, monospace;font-size:14px;}rect.backdrop{stroke:none;fill:white;}.broken{stroke-dasharray:8;}.filled{fill:black;}.bg_filled{fill:white;}.nofill{fill:white;}.end_marked_arrow{marker-end:url(#arrow);}.start_marked_arrow{marker-start:url(#arrow);}.end_marked_diamond{marker-end:url(#diamond);}.start_marked_diamond{marker-start:url(#diamond);}.end_marked_circle{marker-end:url(#circle);}.start_marked_circle{marker-start:url(#circle);}.end_marked_open_circle{marker-end:url(#open_circle);}.start_marked_open_circle{marker-start:url(#open_circle);}.end_marked_big_open_circle{marker-end:url(#big_open_circle);}.start_marked_big_open_circle{marker-start:url(#big_open_circle);}<!--separator--></style><defs><marker id="arrow" viewBox="-2 -2 8 8" refX="4" refY="2" markerWidth="7" markerHeight="7" orient="auto-start-reverse"><polygon points="0,0 0,4 4,2 0,0"></polygon></marker><marker id="diamond" viewBox="-2 -2 8 8" refX="4" refY="2" markerWidth="7" markerHeight="7" orient="auto-start-reverse"><polygon points="0,2 2,0 4,2 2,4 0,2"></polygon></marker><marker id="circle" viewBox="0 0 8 8" refX="4" refY="4" markerWidth="7" markerHeight="7" orient="auto-start-reverse"><circle cx="4" cy="4" r="2" class="filled"></circle></marker><marker id="open_circle" viewBox="0 0 8 8" refX="4" refY="4" markerWidth="7" markerHeight="7" orient="auto-start-reverse"><circle cx="4" cy="4" r="2" class="bg_filled"></circle></marker><marker id="big_open_circle" viewBox="0 0 8 8" refX="4" refY="4" markerWidth="7" markerHeight="7" orient="auto-start-reverse"><circle cx="4" cy="4" r="3" class="bg_filled"></circle></marker></defs><rect class="backdrop" x="0" y="0" width="352" height="496"></rect><rect x="164" y="8" width="16" height="32" class="solid nofill" rx="4"></rect><rect x="260" y="8" width="16" height="32" class="solid nofill" rx="4"></rect><circle cx="28" cy="456" r="24" class="nofill"></circle><text x="18" y="460" >No.</text><text x="10" y="172" >1d6</text><text x="42" y="172" >Stolen</text><text x="98" y="172" >Treasures</text><text x="18" y="204" >1</text><text x="50" y="204" >A</text><text x="66" y="204" >fine</text><text x="106" y="204" >hat.</text><text x="18" y="236" >2</text><text x="18" y="268" >3</text><text x="18" y="300" >4</text><text x="18" y="332" >5</text><text x="18" y="364" >6</text><text x="74" y="460" >Numbered</text><text x="146" y="460" >Works,</text><text x="202" y="460" >No.</text><text x="234" y="460" >6.</text><text x="258" y="460" >March</text><text x="306" y="460" >2022.</text><g><line x1="4" y1="8" x2="16" y2="8" class="solid"></line><line x1="4" y1="8" x2="4" y2="40" class="solid"></line><path d="M 16,8 A 4,4 0,0,1 20,12" class="nofill"></path><line x1="20" y1="12" x2="20" y2="36" class="solid"></line><line x1="4" y1="40" x2="16" y2="40" class="solid"></line><path d="M 20,36 A 4,4 0,0,1 16,40" class="nofill"></path></g><g><line x1="36" y1="8" x2="36" y2="36" class="solid"></line><path d="M 36,36 A 4,4 0,0,0 40,40" class="nofill"></path><line x1="40" y1="40" x2="48" y2="40" class="solid"></line><line x1="52" y1="8" x2="52" y2="36" class="solid"></line><path d="M 52,36 A 4,4 0,0,1 48,40" class="nofill"></path></g><g><line x1="68" y1="8" x2="68" y2="40" class="solid"></line><line x1="68" y1="8" x2="84" y2="40" class="solid"></line><line x1="84" y1="8" x2="84" y2="40" class="solid"></line></g><g><path d="M 104,8 A 4,4 0,0,0 100,12" class="nofill"></path><line x1="100" y1="12" x2="100" y2="36" class="solid"></line><line x1="104" y1="8" x2="112" y2="8" class="solid"></line><path d="M 100,36 A 4,4 0,0,0 104,40" class="nofill"></path><line x1="104" y1="40" x2="112" y2="40" class="solid"></line><line x1="116" y1="24" x2="116" y2="36" class="solid"></line><path d="M 116,36 A 4,4 0,0,1 112,40" class="nofill"></path></g><g><line x1="132" y1="8" x2="152" y2="8" class="solid"></line><line x1="132" y1="8" x2="132" y2="40" class="solid"></line><line x1="132" y1="24" x2="148" y2="24" class="solid"></line><line x1="132" y1="40" x2="152" y2="40" class="solid"></line></g><g><line x1="196" y1="8" x2="196" y2="40" class="solid"></line><line x1="196" y1="8" x2="212" y2="40" class="solid"></line><line x1="212" y1="8" x2="212" y2="40" class="solid"></line></g><g><line x1="228" y1="8" x2="240" y2="8" class="solid"></line><line x1="228" y1="8" x2="228" y2="40" class="solid"></line><path d="M 240,8 A 4,4 0,0,1 244,12" class="nofill"></path><line x1="244" y1="12" x2="244" y2="36" class="solid"></line><line x1="228" y1="24" x2="244" y2="24" class="solid"></line><line x1="228" y1="40" x2="240" y2="40" class="solid"></line><path d="M 244,36 A 4,4 0,0,1 240,40" class="nofill"></path></g><g><line x1="292" y1="8" x2="304" y2="8" class="solid"></line><line x1="292" y1="8" x2="292" y2="40" class="solid"></line><path d="M 304,8 A 4,4 0,0,1 308,12" class="nofill"></path><line x1="308" y1="12" x2="308" y2="36" class="solid"></line><line x1="292" y1="24" x2="308" y2="24" class="solid"></line><line x1="292" y1="40" x2="304" y2="40" class="solid"></line><path d="M 308,36 A 4,4 0,0,1 304,40" class="nofill"></path></g><g><line x1="4" y1="72" x2="20" y2="72" class="solid"></line><line x1="4" y1="72" x2="4" y2="120" class="solid"></line><line x1="20" y1="72" x2="20" y2="88" class="solid"></line><line x1="20" y1="88" x2="4" y2="120" class="solid"></line></g><g><line x1="36" y1="72" x2="36" y2="120" class="solid"></line><line x1="52" y1="72" x2="52" y2="120" class="solid"></line><line x1="36" y1="120" x2="52" y2="120" class="solid"></line></g><g><line x1="68" y1="72" x2="68" y2="120" class="solid"></line><line x1="68" y1="72" x2="92" y2="120" class="solid"></line><line x1="92" y1="72" x2="92" y2="120" class="solid"></line></g><g><line x1="116" y1="72" x2="128" y2="72" class="solid"></line><line x1="116" y1="72" x2="104" y2="96" class="solid"></line><line x1="120" y1="88" x2="132" y2="88" class="solid"></line><line x1="132" y1="88" x2="116" y2="120" class="solid"></line><line x1="104" y1="96" x2="116" y2="120" class="solid"></line></g><g><line x1="148" y1="72" x2="160" y2="72" class="solid"></line><line x1="148" y1="72" x2="148" y2="88" class="solid"></line><line x1="148" y1="88" x2="160" y2="88" class="solid"></line><line x1="148" y1="88" x2="132" y2="120" class="solid"></line><line x1="132" y1="120" x2="168" y2="120" class="solid"></line></g><g><line x1="172" y1="72" x2="204" y2="72" class="solid"></line><line x1="172" y1="72" x2="172" y2="88" class="solid"></line><line x1="204" y1="72" x2="204" y2="88" class="solid"></line><line x1="172" y1="88" x2="188" y2="120" class="solid"></line><line x1="204" y1="88" x2="188" y2="120" class="solid"></line></g><g><line x1="220" y1="72" x2="220" y2="120" class="solid"></line><line x1="220" y1="72" x2="244" y2="120" class="solid"></line><line x1="244" y1="72" x2="244" y2="120" class="solid"></line></g><g><line x1="4" y1="184" x2="308" y2="184" class="solid"></line><line x1="4" y1="184" x2="4" y2="376" class="solid"></line><line x1="36" y1="184" x2="36" y2="376" class="solid"></line><line x1="308" y1="184" x2="308" y2="376" class="solid"></line><line x1="4" y1="216" x2="308" y2="216" class="solid"></line><line x1="4" y1="248" x2="308" y2="248" class="solid"></line><line x1="4" y1="280" x2="308" y2="280" class="solid"></line><line x1="4" y1="312" x2="308" y2="312" class="solid"></line><line x1="4" y1="344" x2="308" y2="344" class="solid"></line><line x1="4" y1="376" x2="308" y2="376" class="solid"></line></g></svg>