<svg viewBox="0 0 3171 1761" xmlns="http://www.w3.org/2000/svg" xmlns:xlink="http://www.w3.org/1999/xlink">
 <image x="1.20754" y="4.83016" width="3171" height="1761" preserveAspectRatio="none" xlink:href="https://numbered.works/free-stone-city/images/map.jpg"/>
 <g fill-opacity="0">
  <a href="#1-hut" title="HUT"><path d="m112.301 1345.2 161.81 400.903 88.1504 1.2076 318.791-88.1505-77.2826-502.337-283.772 78.4901-3.62262-137.66-84.5278 3.6227 3.62262 149.735-120.754 2.4151z"/></a>
  <a href="#2-hall" title="HALL"><path d="m86.9429 929.806 340.526 205.282 347.772-224.602-4.83016-181.131 62.7921-2.41508-12.0754-33.8111-311.545-241.508-9.66032-142.49-268.074 2.41508-222.187 340.526 2.41508 62.7921 82.1127 45.8865z"/></a>
  <a href="#3-zome" title="ZOME"><path d="m1019.16 185.961h449.205l2.4151 164.225 70.0373 207.697-84.5278 166.641-222.187 82.1127-210.112-2.41508-158.188-80.9052-76.075-65.2072-44.679-100.226 14.4905-177.508 131.622-121.962z"/></a>
  <a href="#4-station" title="STATION"><path d="m1536.95 430.345 5.1231-208.342 80.2629-25.6158v-112.709h181.018l119.54 61.4779-11.9541 481.577-187.849 42.693-39.2775-81.9705-75.1397 22.2004z"/></a>
  <a href="#5-keepers-home" title="KEEPER’S HOME‬"><path d="m2066.34 151.987 288.605 83.6782 5.1231 457.669-128.079 122.956-148.572-17.0772-23.9081 32.4467-15.3694 92.2168-80.2629 109.294-114.417-66.6011-119.54 11.954v-128.079l80.2628-136.618 129.787 29.0312v-271.527l114.417-194.68z"/></a>
  <a href="#6-workshop" title="WORKSHOP"><path d="m2687.95 191.265 203.219-1.70772 3.4154 237.373 92.2169 34.1544-1.7077 128.079-35.8622 29.0312 29.0313 56.3547-3.4155 379.114-167.356 90.5091-87.0937-73.4319-88.8014 46.1084-87.0937-63.1856-76.8473 44.4007-111.002-107.586 1.7077-198.095 20.4927-23.9081 5.1231-169.064 302.266-155.402z"/></a>
  <a href="#7-bee-shed" title="BEE SHED"><path d="m2628.18 1279.08 305.682-174.187 75.1396 44.4007 68.3088-54.647 76.8474 47.8161 1.7077 194.68-63.1856 32.4467-3.4155 157.11-230.542 114.417-170.772-129.787 5.1231-157.11-66.601-46.1084z"/></a>
  <a href="#8-fruit-trees" title="FRUIT TREES"><path d="m2204.67 1472.05-3.4155-303.974 52.9393 40.9853 51.2316-5.1232 35.8621-56.3547 11.9541-122.956-77.7013-203.219-182.726 10.2463-29.0313 45.2546-5.1231 58.0624-105.025 128.079 43.5468 52.9393 16.2234 70.8704-121.248 85.386v66.601l70.0165 88.8014-1.7077 116.125 92.2168 15.3694 3.4155-78.5551z"/></a>
  <a href="#9-the-stones" title="THE STONES"><path d="m1543.24 642.411-70.0373 152.15h-166.64l-142.49 94.1881-57.9619 99.0183-57.9619-4.83016-57.9619-108.679-82.1127 21.7357-62.7921 96.6032 9.66032 70.0373h99.0183l57.9619-36.2262 38.6413 31.396-9.6603 195.622h-94.1882l-19.3206-91.773-130.414-48.3016-137.66 55.5468-2.41508 91.773 31.396 57.962 62.7921 21.7357-28.981 111.094 60.377 72.4524 106.264 41.0563 152.15-21.7357 101.433-99.0183 55.5469 9.6603 89.3579 16.9056h118.339l24.1508 115.924 154.565 79.6977 159.395 4.8301 130.414-82.1127 7.2452-127.999-53.1318-101.433-50.7166-50.7167 183.546-120.754-27.4139-153.164-85.3784-43.1278-177.017 29.6513 12.0754-154.565 46.3071-42.7579 21.3152-75.581-103.848-108.679z"/></a>
  <a href="#9-the-stones" title="THE STONES"><path d="m1113.35 1577.05 77.2825-26.5659 82.1127 25.3584 21.7358 70.0373-44.679 55.5468-127.999 19.3207-68.8297-30.1885-8.4528-65.2072z"/></a>
  <a href="#9-the-stones" title="THE STONES"><path d="m2287.08 1273.95 94.1882-125.584 90.5655-19.3206 102.641 136.452 12.0754 189.584-111.094 112.301-111.094 1.2075-121.962-94.1881z"/></a>
 </g>
</svg>
